<svg xmlns="http://www.w3.org/2000/svg" viewBox="0 0 1024 139"><defs><style>.cls-1{fill:#339;}.cls-2,.cls-3{fill:#fff;}.cls-3{stroke:#fff;stroke-miterlimit:10;stroke-width:2px;}</style></defs><g id="Capa_3" data-name="Capa 3"><path class="cls-1" d="M33.18,132.76H1018.9a5.23,5.23,0,0,0,5.24-5.22V70a5.23,5.23,0,0,0-5.24-5.21H35.79A35.54,35.54,0,0,0,.14,100.19a32.67,32.67,0,0,0,32.77,32.57"/><path class="cls-2" d="M118.75,108.72a3.56,3.56,0,1,1-5,5l-1.1-1.1a14.9,14.9,0,0,1-7.87,2.2,15.13,15.13,0,1,1,12.92-7.21Zm-11.43-1.41-1.79-1.82a3.55,3.55,0,1,1,5-5l1.82,1.83a8.52,8.52,0,0,0,.42-2.63,8,8,0,1,0-5.47,7.64Z"/><path class="cls-2" d="M125.07,85.2a3.54,3.54,0,0,1,3.57,3.53v16.15a2.85,2.85,0,1,0,5.7,0V88.73a3.55,3.55,0,0,1,7.1,0v16.15a10,10,0,0,1-19.91,0V88.73A3.53,3.53,0,0,1,125.07,85.2Z"/><path class="cls-2" d="M147.18,85.16a3.56,3.56,0,0,1,3.57,3.53v21.89a3.55,3.55,0,1,1-7.1,0V88.69A3.53,3.53,0,0,1,147.18,85.16Z"/><path class="cls-2" d="M170.36,110.58a3.56,3.56,0,0,1-3.53,3.57h-5.55a8.44,8.44,0,0,1-8.44-8.43V93.6a8.42,8.42,0,0,1,8.44-8.44h4.94a3.56,3.56,0,0,1,0,7.11h-4.94A1.32,1.32,0,0,0,160,93.6v1.33h5a3.55,3.55,0,1,1,0,7.1h-5v3.69a1.32,1.32,0,0,0,1.33,1.33h5.55A3.55,3.55,0,0,1,170.36,110.58Zm-3.08-32a2.57,2.57,0,0,1-.61,3.61l-3.26,2.35a2.6,2.6,0,0,1-3.61-.57,2.56,2.56,0,0,1,.6-3.6L163.67,78A2.6,2.6,0,0,1,167.28,78.55Z"/><path class="cls-2" d="M191.41,88.73v21.89a3.55,3.55,0,0,1-6.61,1.78l-6-10.45v8.67a3.56,3.56,0,0,1-7.11,0V88.73A3.55,3.55,0,0,1,178.26,87l6.05,10.45V88.73a3.55,3.55,0,1,1,7.1,0Z"/><path class="cls-2" d="M208.59,100.66a3.56,3.56,0,0,1,3.19,3.92,1.2,1.2,0,0,0,0,.38,2.88,2.88,0,0,0,3,2.77,2.94,2.94,0,0,0,2-.91,3.13,3.13,0,0,0,.76-2,2.88,2.88,0,0,0-3-2.74,8.75,8.75,0,1,1,8.17-10.87,3.54,3.54,0,1,1-6.87,1.71,1.64,1.64,0,1,0-1.56,2.06,9.95,9.95,0,0,1,7.64,16.75,9.73,9.73,0,0,1-6.92,3.15,10,10,0,0,1-10.33-9.61,9.38,9.38,0,0,1,.07-1.4A3.54,3.54,0,0,1,208.59,100.66Z"/><path class="cls-2" d="M245.82,104.88a10,10,0,1,1-19.9,0V94.47a10,10,0,1,1,19.9,0Zm-7.1-10.41a2.85,2.85,0,0,0-5.7,0v10.41a2.85,2.85,0,1,0,5.7,0Z"/><path class="cls-2" d="M267.22,88.73v4a10,10,0,0,1-6.35,9.31v8.59a3.55,3.55,0,0,1-7.1,0v-8.55a10,10,0,0,1-6.46-9.35v-4a3.55,3.55,0,1,1,7.1,0v4a2.85,2.85,0,0,0,5.7,0v-4a3.56,3.56,0,1,1,7.11,0Z"/><path class="cls-2" d="M423.07,110.58V88.73a3.57,3.57,0,0,1,3.57-3.57h5.48a9.73,9.73,0,1,1,0,19.45h-1.94v6a3.56,3.56,0,1,1-7.11,0Zm7.11-13.07h1.94a2.62,2.62,0,1,0,0-5.24h-1.94Z"/><path class="cls-2" d="M463,104.88a10,10,0,0,1-19.91,0V94.47a10,10,0,1,1,19.91,0ZM455.9,94.47a2.85,2.85,0,1,0-5.7,0v10.41a2.85,2.85,0,1,0,5.7,0Z"/><path class="cls-2" d="M482.12,100.51a9.65,9.65,0,0,1,2.47,6.5v3.61a3.55,3.55,0,0,1-7.1,0V107a2.79,2.79,0,0,0-2.4-2.7,3.53,3.53,0,0,1-2.77-3.34,3.57,3.57,0,0,1,2.54-3.54,2.63,2.63,0,0,0-.76-5.16h-1.93v18.35a3.56,3.56,0,0,1-7.11,0V88.73a3.57,3.57,0,0,1,3.57-3.57h5.47a9.76,9.76,0,0,1,9.77,9.73A9.88,9.88,0,0,1,482.12,100.51Z"/><path class="cls-2" d="M504,88.73a3.56,3.56,0,0,1-3.57,3.54h-3v18.38a3.56,3.56,0,0,1-7.11,0V92.27h-3a3.56,3.56,0,1,1,0-7.11H500.4A3.57,3.57,0,0,1,504,88.73Z"/><path class="cls-2" d="M524,94.47v16.15a3.56,3.56,0,1,1-7.11,0v-5.36h-5.7v5.36a3.55,3.55,0,1,1-7.1,0V94.47a10,10,0,1,1,19.91,0Zm-7.11,3.68V94.47a2.85,2.85,0,0,0-5.7,0v3.68Z"/><path class="cls-2" d="M533.23,93.56v1.33h5a3.55,3.55,0,0,1,0,7.1h-5v8.59a3.55,3.55,0,0,1-7.1,0v-17a8.47,8.47,0,0,1,8.43-8.44h4.94a3.56,3.56,0,1,1,0,7.11h-4.94A1.35,1.35,0,0,0,533.23,93.56Z"/><path class="cls-2" d="M563.17,104.88a10,10,0,0,1-19.91,0V94.47a10,10,0,1,1,19.91,0Zm-7.1-10.41a2.85,2.85,0,0,0-5.7,0v10.41a2.85,2.85,0,1,0,5.7,0Z"/><path class="cls-2" d="M582.86,110.58a3.57,3.57,0,0,1-3.57,3.57H568.76a3.56,3.56,0,0,1-3.53-3.57V88.69a3.55,3.55,0,0,1,7.1,0v18.36h7A3.53,3.53,0,0,1,582.86,110.58Z"/><path class="cls-2" d="M587.53,85.16a3.57,3.57,0,0,1,3.58,3.53v21.89a3.57,3.57,0,0,1-3.58,3.57,3.54,3.54,0,0,1-3.53-3.57V88.69A3.53,3.53,0,0,1,587.53,85.16Z"/><path class="cls-2" d="M613.07,104.88a10,10,0,0,1-19.91,0V94.47a10,10,0,1,1,19.91,0ZM606,94.47a2.85,2.85,0,0,0-5.7,0v10.41a2.85,2.85,0,0,0,5.7,0Z"/><path class="cls-2" d="M796.07,106.93a15.17,15.17,0,1,1,0-14.51,3.55,3.55,0,0,1-6.23,3.42,8,8,0,1,0,0,7.71,3.54,3.54,0,1,1,6.23,3.38Z"/><path class="cls-2" d="M817.73,104.88a10,10,0,0,1-19.91,0V94.47a10,10,0,1,1,19.91,0Zm-7.1-10.41a2.85,2.85,0,1,0-5.7,0v10.41a2.85,2.85,0,0,0,5.7,0Z"/><path class="cls-2" d="M839.54,88.73v21.89a3.55,3.55,0,0,1-6.61,1.78l-6-10.45v8.67a3.55,3.55,0,0,1-7.1,0V88.73A3.55,3.55,0,0,1,826.4,87l6,10.45V88.73a3.55,3.55,0,1,1,7.1,0Z"/><path class="cls-2" d="M861,88.73a3.57,3.57,0,0,1-3.58,3.54h-3v18.38a3.55,3.55,0,0,1-7.1,0V92.27h-3a3.56,3.56,0,1,1,0-7.11H857.4A3.57,3.57,0,0,1,861,88.73Z"/><path class="cls-2" d="M881,94.47v16.15a3.55,3.55,0,1,1-7.1,0v-5.36h-5.7v5.36a3.56,3.56,0,1,1-7.11,0V94.47a10,10,0,1,1,19.91,0Zm-7.1,3.68V94.47a2.85,2.85,0,0,0-5.7,0v3.68Z"/><path class="cls-2" d="M902.89,94.47v.34a3.56,3.56,0,1,1-7.11,0v-.34a2.85,2.85,0,0,0-5.7,0v10.41a2.85,2.85,0,0,0,5.7,0v-.38a3.56,3.56,0,1,1,7.11,0v.38a10,10,0,0,1-19.91,0V94.47a10,10,0,1,1,19.91,0Z"/><path class="cls-2" d="M923,88.73a3.56,3.56,0,0,1-3.57,3.54h-3v18.38a3.56,3.56,0,0,1-7.11,0V92.27h-3a3.56,3.56,0,1,1,0-7.11h13.15A3.57,3.57,0,0,1,923,88.73Z"/><path class="cls-2" d="M942.9,104.88a10,10,0,0,1-19.91,0V94.47a10,10,0,1,1,19.91,0Zm-7.1-10.41a2.85,2.85,0,1,0-5.7,0v10.41a2.85,2.85,0,1,0,5.7,0Z"/><line class="cls-3" x1="341.14" y1="64.76" x2="341.14" y2="132.76"/><line class="cls-3" x1="683.14" y1="64.76" x2="683.14" y2="132.76"/></g></svg>