<svg xmlns="http://www.w3.org/2000/svg" viewBox="0 0 341 74"><defs><style>.cls-1{fill:#339;}.cls-2,.cls-3{fill:#fff;}.cls-3{stroke:#fff;stroke-miterlimit:10;stroke-width:2px;}</style></defs><g id="Capa_3" data-name="Capa 3"><path class="cls-1" d="M33.33,70.69H1019a5.24,5.24,0,0,0,5.25-5.22V7.9A5.23,5.23,0,0,0,1019,2.69H35.93A35.53,35.53,0,0,0,.29,38.11,32.67,32.67,0,0,0,33.05,70.69"/><path class="cls-2" d="M118.9,46.65a3.56,3.56,0,1,1-5.06,5l-1.1-1.1a14.89,14.89,0,0,1-7.86,2.2,15.15,15.15,0,1,1,12.92-7.22Zm-11.44-1.41-1.79-1.82a3.55,3.55,0,0,1,5-5l1.82,1.82a8.41,8.41,0,0,0,.42-2.62,8,8,0,1,0-5.47,7.64Z"/><path class="cls-2" d="M125.21,23.13a3.54,3.54,0,0,1,3.57,3.53V42.81a2.85,2.85,0,0,0,5.7,0V26.66a3.55,3.55,0,0,1,7.1,0V42.81a10,10,0,0,1-19.91,0V26.66A3.53,3.53,0,0,1,125.21,23.13Z"/><path class="cls-2" d="M147.32,23.09a3.57,3.57,0,0,1,3.58,3.53V48.51a3.57,3.57,0,0,1-3.58,3.57,3.54,3.54,0,0,1-3.53-3.57V26.62A3.53,3.53,0,0,1,147.32,23.09Z"/><path class="cls-2" d="M170.5,48.51A3.56,3.56,0,0,1,167,52.08h-5.55A8.44,8.44,0,0,1,153,43.64V31.52a8.41,8.41,0,0,1,8.43-8.43h4.94a3.55,3.55,0,0,1,0,7.1h-4.94a1.32,1.32,0,0,0-1.33,1.33v1.33h5a3.56,3.56,0,1,1,0,7.11h-5v3.68A1.32,1.32,0,0,0,161.42,45H167A3.55,3.55,0,0,1,170.5,48.51Zm-3.08-32a2.57,2.57,0,0,1-.6,3.61l-3.27,2.35a2.6,2.6,0,0,1-3.61-.57,2.57,2.57,0,0,1,.61-3.61l3.26-2.35A2.6,2.6,0,0,1,167.42,16.48Z"/><path class="cls-2" d="M191.55,26.66V48.55a3.55,3.55,0,0,1-6.61,1.78l-6-10.45v8.67a3.55,3.55,0,0,1-7.1,0V26.66a3.55,3.55,0,0,1,6.61-1.78l6,10.44V26.66a3.55,3.55,0,1,1,7.1,0Z"/><path class="cls-2" d="M208.73,38.59a3.55,3.55,0,0,1,3.19,3.91,1.26,1.26,0,0,0,0,.38,2.88,2.88,0,0,0,5,1.87,3.16,3.16,0,0,0,.76-2.06,2.87,2.87,0,0,0-3-2.73,8.75,8.75,0,1,1,8.17-10.87A3.54,3.54,0,1,1,216,30.8a1.64,1.64,0,0,0-3.23.46,1.67,1.67,0,0,0,1.67,1.59A9.95,9.95,0,0,1,222,49.61a9.73,9.73,0,0,1-6.92,3.15,10,10,0,0,1-10.33-9.61,9.52,9.52,0,0,1,.07-1.41A3.54,3.54,0,0,1,208.73,38.59Z"/><path class="cls-2" d="M246,42.81a10,10,0,0,1-19.91,0V32.4a10,10,0,1,1,19.91,0ZM238.86,32.4a2.85,2.85,0,0,0-5.7,0V42.81a2.85,2.85,0,0,0,5.7,0Z"/><path class="cls-2" d="M267.36,26.66v4A10,10,0,0,1,261,40v8.59a3.56,3.56,0,0,1-7.11,0V40a10,10,0,0,1-6.46-9.35v-4a3.56,3.56,0,1,1,7.11,0v4a2.82,2.82,0,0,0,2.85,2.85,2.85,2.85,0,0,0,2.85-2.85v-4a3.55,3.55,0,1,1,7.1,0Z"/><line class="cls-3" x1="341.29" y1="2.69" x2="341.29" y2="70.69"/></g></svg>