<svg xmlns="http://www.w3.org/2000/svg" viewBox="0 0 341 74"><defs><style>.cls-1{fill:#339;}.cls-2,.cls-3{fill:#fff;}.cls-3{stroke:#fff;stroke-miterlimit:10;stroke-width:2px;}</style></defs><g id="Capa_3" data-name="Capa 3"><path class="cls-1" d="M-649.67,70.69H336a5.24,5.24,0,0,0,5.25-5.22V7.9A5.23,5.23,0,0,0,336,2.69H-647.07a35.53,35.53,0,0,0-35.64,35.42,32.67,32.67,0,0,0,32.76,32.58"/><path class="cls-2" d="M113.21,44.86a15.17,15.17,0,1,1,0-14.51A3.55,3.55,0,0,1,107,33.77a8,8,0,1,0,0,7.71,3.54,3.54,0,1,1,6.23,3.38Z"/><path class="cls-2" d="M134.88,42.81a10,10,0,0,1-19.91,0V32.4a10,10,0,1,1,19.91,0ZM127.77,32.4a2.85,2.85,0,1,0-5.7,0V42.81a2.85,2.85,0,1,0,5.7,0Z"/><path class="cls-2" d="M156.69,26.66V48.55a3.55,3.55,0,0,1-6.61,1.78l-6-10.45v8.67a3.56,3.56,0,0,1-7.11,0V26.66a3.55,3.55,0,0,1,6.61-1.78l6,10.44V26.66a3.56,3.56,0,1,1,7.11,0Z"/><path class="cls-2" d="M178.12,26.66a3.56,3.56,0,0,1-3.57,3.53h-3V48.58a3.56,3.56,0,0,1-7.11,0V30.19h-3a3.55,3.55,0,1,1,0-7.1h13.15A3.57,3.57,0,0,1,178.12,26.66Z"/><path class="cls-2" d="M198.14,32.4V48.55a3.55,3.55,0,1,1-7.1,0V43.19h-5.7v5.36a3.55,3.55,0,1,1-7.1,0V32.4a10,10,0,1,1,19.9,0ZM191,36.08V32.4a2.85,2.85,0,0,0-5.7,0v3.68Z"/><path class="cls-2" d="M220,32.4v.34a3.55,3.55,0,1,1-7.1,0V32.4a2.85,2.85,0,1,0-5.7,0V42.81a2.85,2.85,0,1,0,5.7,0v-.38a3.55,3.55,0,1,1,7.1,0v.38a10,10,0,0,1-19.91,0V32.4a10,10,0,1,1,19.91,0Z"/><path class="cls-2" d="M240.13,26.66a3.55,3.55,0,0,1-3.57,3.53h-3V48.58a3.55,3.55,0,0,1-7.1,0V30.19h-3a3.55,3.55,0,1,1,0-7.1h13.14A3.57,3.57,0,0,1,240.13,26.66Z"/><path class="cls-2" d="M260.05,42.81a10,10,0,0,1-19.91,0V32.4a10,10,0,1,1,19.91,0ZM252.94,32.4a2.85,2.85,0,1,0-5.7,0V42.81a2.85,2.85,0,1,0,5.7,0Z"/><line class="cls-3" x1="0.29" y1="2.69" x2="0.29" y2="70.69"/></g></svg>