<svg xmlns="http://www.w3.org/2000/svg" viewBox="0 0 342 74"><defs><style>.cls-1{fill:#339;}.cls-2,.cls-3{fill:#fff;}.cls-3{stroke:#fff;stroke-miterlimit:10;stroke-width:2px;}</style></defs><g id="Capa_3" data-name="Capa 3"><path class="cls-1" d="M-307.67,70.69H678a5.24,5.24,0,0,0,5.25-5.22V7.9A5.23,5.23,0,0,0,678,2.69H-305.07a35.53,35.53,0,0,0-35.64,35.42,32.67,32.67,0,0,0,32.76,32.58"/><path class="cls-2" d="M82.22,48.51V26.66a3.57,3.57,0,0,1,3.57-3.57h5.47a9.73,9.73,0,1,1,0,19.45H89.32v6a3.55,3.55,0,1,1-7.1,0Zm7.1-13.07h1.94a2.63,2.63,0,1,0,0-5.25H89.32Z"/><path class="cls-2" d="M122.15,42.81a10,10,0,0,1-19.91,0V32.4a10,10,0,1,1,19.91,0Zm-7.1-10.41a2.85,2.85,0,1,0-5.7,0V42.81a2.85,2.85,0,1,0,5.7,0Z"/><path class="cls-2" d="M141.26,38.44a9.65,9.65,0,0,1,2.47,6.5v3.61a3.55,3.55,0,0,1-7.1,0V44.94a2.78,2.78,0,0,0-2.4-2.7,3.53,3.53,0,0,1-2.77-3.34A3.56,3.56,0,0,1,134,35.36a2.61,2.61,0,0,0,1.9-2.54,2.64,2.64,0,0,0-2.66-2.63h-1.94V48.55a3.53,3.53,0,0,1-3.53,3.53,3.57,3.57,0,0,1-3.58-3.53V26.66a3.57,3.57,0,0,1,3.58-3.57h5.47a9.77,9.77,0,0,1,8,15.35Z"/><path class="cls-2" d="M163.11,26.66a3.55,3.55,0,0,1-3.57,3.53h-3V48.58a3.55,3.55,0,0,1-7.1,0V30.19h-3a3.55,3.55,0,1,1,0-7.1h13.14A3.57,3.57,0,0,1,163.11,26.66Z"/><path class="cls-2" d="M183.14,32.4V48.55a3.56,3.56,0,1,1-7.11,0V43.19h-5.69v5.36a3.56,3.56,0,1,1-7.11,0V32.4a10,10,0,1,1,19.91,0ZM176,36.08V32.4a2.85,2.85,0,1,0-5.69,0v3.68Z"/><path class="cls-2" d="M192.37,31.49v1.33h5.06a3.55,3.55,0,0,1,0,7.1h-5.06v8.59a3.55,3.55,0,0,1-7.1,0v-17a8.47,8.47,0,0,1,8.43-8.44h4.94a3.56,3.56,0,1,1,0,7.11H193.7A1.34,1.34,0,0,0,192.37,31.49Z"/><path class="cls-2" d="M222.32,42.81a10,10,0,0,1-19.91,0V32.4a10,10,0,1,1,19.91,0ZM215.21,32.4a2.85,2.85,0,1,0-5.7,0V42.81a2.85,2.85,0,1,0,5.7,0Z"/><path class="cls-2" d="M242,48.51a3.57,3.57,0,0,1-3.57,3.57H227.9a3.56,3.56,0,0,1-3.53-3.57V26.62a3.56,3.56,0,0,1,7.11,0V45h7A3.53,3.53,0,0,1,242,48.51Z"/><path class="cls-2" d="M246.68,23.09a3.56,3.56,0,0,1,3.57,3.53V48.51a3.56,3.56,0,1,1-7.11,0V26.62A3.53,3.53,0,0,1,246.68,23.09Z"/><path class="cls-2" d="M272.21,42.81a10,10,0,0,1-19.91,0V32.4a10,10,0,1,1,19.91,0ZM265.1,32.4a2.85,2.85,0,1,0-5.69,0V42.81a2.85,2.85,0,1,0,5.69,0Z"/><line class="cls-3" x1="0.29" y1="2.69" x2="0.29" y2="70.69"/><line class="cls-3" x1="342.29" y1="2.69" x2="342.29" y2="70.69"/></g></svg>